<svg id="Layer_1" data-name="Layer 1" xmlns="http://www.w3.org/2000/svg" viewBox="0 0 250 118.96"><defs><style>.cls-1{fill:#60c9e2;}.cls-2{fill:#4c4c4c;}.cls-3{fill:#a5ecf2;}.cls-4{fill:#d2f6f9;}</style></defs><title>Untitled-11</title><path class="cls-1" d="M7.62,109.8c-1,0-2.72-.46-2.72-3.51V91.16c-0.5,0-1,.06-1.41.06C1.76,91.21,0,90.88,0,88.39c0-1.89,1.05-2.78,3.31-2.78,0.55,0,1.08,0,1.63.08V83.61c0-6,2.91-9.61,7.8-9.61,1.86,0,3.76.32,3.76,2.73C16.5,79,14.14,79,12.87,79,11,79,10.38,81.06,10.38,83v2.59a13.8,13.8,0,0,1,1.86-.08c1.54,0,3.58.29,3.58,2.78,0,2.87-2.59,2.87-4,2.87-0.41,0-.94,0-1.45,0v15.11C10.38,109.19,9.27,109.8,7.62,109.8Z" transform="translate(0 -1.04)"/><path class="cls-1" d="M29.38,110.12c-9.39,0-10.47-10.4-10.47-18.22,0-3.77,0-6.74,2.72-6.74,1,0,2.61.43,2.81,3.29,0.07,0.9.07,2,.07,3.32,0,5.44,0,12.88,4.87,12.88s4.86-7.44,4.87-12.88c0-1.3,0-2.43.07-3.33,0.2-2.86,1.85-3.28,2.81-3.28,2.72,0,2.72,3,2.72,6.74C39.85,99.72,38.77,110.12,29.38,110.12Z" transform="translate(0 -1.04)"/><path class="cls-1" d="M53.37,109.8c-7.2,0-8.7,0-8.7-2.14,0-2.75,3.29-6.93,5.25-9.42l0.7-.9a50.27,50.27,0,0,1,5.45-6.11c-1.16,0-2.46,0-3.65,0-5.24,0-7.21,0-7.21-2.73,0-1.64,1-2.38,3.32-2.55,0.74-.06,1.18-0.12,1.52-0.16a15.19,15.19,0,0,1,2.32-.12c2.17,0,4.31.07,7.37,0.23,2.37,0.09,3.74,1,3.74,2.59,0,2.34-3.79,6.78-8.19,11.93-1.08,1.26-2.19,2.56-3.22,3.82l1.26,0c2.68,0,4.68.09,7.64,0.23s3.51,1,3.51,2.59-1.07,2.37-3.46,2.5S56.17,109.8,53.37,109.8Z" transform="translate(0 -1.04)"/><path class="cls-1" d="M76.68,109.8c-7.2,0-8.7,0-8.7-2.14,0-2.75,3.29-6.93,5.25-9.42l0.7-.9a50.38,50.38,0,0,1,5.45-6.11c-1.16,0-2.47,0-3.65,0-5.24,0-7.21,0-7.21-2.73,0-1.64,1-2.38,3.32-2.55,0.74-.06,1.18-0.12,1.52-0.16a15.19,15.19,0,0,1,2.32-.12c2.17,0,4.31.07,7.37,0.23,2.37,0.09,3.74,1,3.74,2.59,0,2.34-3.79,6.78-8.19,11.93-1.08,1.26-2.19,2.56-3.22,3.82l1.26,0c2.68,0,4.68.09,7.64,0.23s3.51,1,3.51,2.59-1.07,2.37-3.46,2.5S79.48,109.8,76.68,109.8Z" transform="translate(0 -1.04)"/><path class="cls-1" d="M96.44,120a2.32,2.32,0,0,1-2.4-2c0-1.52,1.69-5,3.32-8.34,0.45-.93.89-1.82,1.26-2.62l0.21-.46c-3.23-6.4-8-17.08-8-19a2.08,2.08,0,0,1,2.17-2,2.93,2.93,0,0,1,2.75,1.62c1.12,2.08,2.27,4.81,3.48,7.7,0.83,2,1.67,4,2.55,5.87,1.88-3.48,4.36-7.94,7.38-13.26,0.86-1.49,1.85-2.21,3-2.21A1.94,1.94,0,0,1,114,87.25c0,3.14-6.24,14.77-12.64,26.41-0.86,1.56-1.62,2.94-2.2,4C98.44,119.08,97.68,120,96.44,120Z" transform="translate(0 -1.04)"/><path class="cls-2" d="M129.74,109.93c-11.39,0-11.39-10.73-11.39-19.35a94.84,94.84,0,0,1,.54-11.77c0.24-1.53.81-3.55,3-3.55,2.63,0,2.63,2.69,2.63,4.65,0,2.74-.13,6-0.38,9.4a10.44,10.44,0,0,1,7.71-3.16c6,0,10.1,4.67,10.1,11.62C142,105.27,137.28,109.93,129.74,109.93Zm0.89-18.36c-2.92,0-6,1.78-6,6.78,0,4.08,2.06,6.42,5.64,6.42,1.47,0,6.26-.48,6.26-6.65C136.49,94,134.29,91.57,130.62,91.57Z" transform="translate(0 -1.04)"/><path class="cls-2" d="M150.14,109.84c-2.15,0-2.51-1.09-2.76-3.39-0.23-2.13-.27-5-0.27-9.25a68,68,0,0,1,.27-8.51c0.26-2,.77-3.34,2.4-3.34s2.89,0.39,2.9,3.24a8,8,0,0,1,5.82-2.92c2.72,0,3.12,1.68,3.12,2.69,0,2.7-2.53,3.16-4.76,3.57-1.57.3-3.38,1.17-3.95,2.46,0,0.94,0,1.36.05,1.69s0,0.71,0,1.69c0,2.59-.1,4.74-0.21,7.22l-0.06,1.37C152.58,109.42,151.4,109.84,150.14,109.84Z" transform="translate(0 -1.04)"/><path class="cls-2" d="M174.86,110c-2.49,0-10.63-.84-10.63-11.62,0-7.79,4.19-12.83,10.68-12.83a8.82,8.82,0,0,1,6.82,2.74,2.41,2.41,0,0,1,2.56-2.38c1.5,0,2.28,1.09,2.41,3.33,0.19,3.39.27,5.68,0.27,8.16,0,3.3,0,5.81-.27,8.92-0.16,2.52-.78,3.46-2.27,3.46a2.46,2.46,0,0,1-2.61-2.37A9.56,9.56,0,0,1,174.86,110Zm0.27-19.12c-4.51,0-5.46,3.81-5.46,7,0,4.7,2,7.18,5.86,7.18,5.41,0,6-5,6-7.14C181.52,91.59,177,90.9,175.13,90.9Z" transform="translate(0 -1.04)"/><path class="cls-2" d="M196.15,109.79c-1.57,0-2.32-1.06-2.45-3.42s-0.22-5.33-.22-8.47c0-8.82,0-12.47,2.68-12.47,1.6,0,2.37,1,2.5,3.33,0.18,3.16.27,6.13,0.27,9.09,0,2.49-.09,4.59-0.2,7l-0.06,1.44C198.51,109.26,197.7,109.79,196.15,109.79Zm-0.09-26.08a3.18,3.18,0,0,1,.13-6.36A3.18,3.18,0,1,1,196.07,83.71Z" transform="translate(0 -1.04)"/><path class="cls-2" d="M208.47,109.62c-1.77,0-2.26-.57-2.5-2.91-0.22-2.13-.36-7.55-0.36-11.35a42.53,42.53,0,0,1,.32-6.33c0.35-2.48.94-3.28,2.4-3.28A2.55,2.55,0,0,1,211,88a11.64,11.64,0,0,1,7.07-2.68,7,7,0,0,1,6.53,4.07,16.22,16.22,0,0,1,1.43,5.9c0.14,2,.18,3.57.18,7,0,3.91,0,7.29-2.81,7.29a2.36,2.36,0,0,1-2.63-2.45c0-.28,0-6.17-0.13-8.48a22.31,22.31,0,0,0-1-6.08,2.84,2.84,0,0,0-3.1-2,9.34,9.34,0,0,0-5.42,1.92c0,6.89-.11,11.62-0.31,14.06S210.31,109.62,208.47,109.62Z" transform="translate(0 -1.04)"/><path class="cls-2" d="M239.68,110.37c-2.09,0-8.9-.33-8.9-4.52a2.09,2.09,0,0,1,2-2.33,3.86,3.86,0,0,1,1.79.64,9.31,9.31,0,0,0,5,1.32c1.52,0,5.06-.23,5.06-2.4,0-1.73-2.32-2.36-5-3.1l-0.14,0c-3.45-1-7.75-2.2-7.75-7,0-4.53,3.82-7.69,9.3-7.69,3.24,0,8.72.91,8.72,4.34a2,2,0,0,1-2.05,2.15,10.37,10.37,0,0,1-2.45-.47,16.77,16.77,0,0,0-4.44-.74c-1.12,0-3.73.19-3.73,1.91,0,1.46,2,2,5,2.77,2.78,0.67,7.94,1.92,7.94,7.41C250,107.5,246.14,110.37,239.68,110.37Z" transform="translate(0 -1.04)"/><path class="cls-3" d="M150,30.18c0-.06,0-0.12,0-0.17s-0.05-.42-0.09-0.62,0-.12,0-0.18-0.09-.39-0.15-0.58l0-.12c-0.07-.21-0.14-0.42-0.23-0.62l0,0a8,8,0,0,0-1.7-2.51v0c0-.15.07-0.32,0.11-0.48s0.11-.42.14-0.64A8,8,0,0,0,148,23a8,8,0,0,0-.07-1c0-.09,0-0.18,0-0.28q-0.06-.37-0.15-0.73c0-.08,0-0.16-0.06-0.24a8,8,0,0,0-.32-0.91h0a8,8,0,0,0-.44-0.85l-0.1-.16a8,8,0,0,0-.48-0.7L146.27,18a8,8,0,0,0-1.42-1.39l-0.08-.06a8,8,0,0,0-.82-0.54h0A9,9,0,0,0,135,8l-0.51,0a6,6,0,0,0-9.49.66A6,6,0,0,0,115.51,8L115,8a9,9,0,0,0-8.95,8h0a8,8,0,0,0-.82.54l-0.08.06A8,8,0,0,0,103.73,18l-0.07.09a8,8,0,0,0-.48.7l-0.1.16a8,8,0,0,0-.44.85h0a8,8,0,0,0-.32.91c0,0.08,0,.16-0.06.24q-0.09.36-.15,0.73c0,0.09,0,.18,0,0.28a8,8,0,0,0-.07,1,8,8,0,0,0,.09,1.18c0,0.22.09,0.43,0.14,0.64s0.06,0.32.11,0.48v0a8,8,0,0,0-1.7,2.51l0,0c-0.09.2-.16,0.41-0.23,0.62l0,0.12c-0.06.19-.11,0.39-0.15,0.58s0,0.12,0,.18-0.07.41-.09,0.62,0,0.12,0,.17a8.1,8.1,0,0,0,0,.82,8,8,0,0,0,.07,1c0,0.09,0,.19,0,0.28q0.06,0.37.15,0.72c0,0.08,0,.17.06,0.25a7.92,7.92,0,0,0,.31.88l0.08,0.18q0.15,0.34.34,0.67l0.15,0.25q0.2,0.32.42,0.61L101.74,36l0.21,0.25a1,1,0,0,1,.23.85c0,0.1,0,.2,0,0.3s-0.06.36-.07,0.54A10.54,10.54,0,0,0,102,39c0,0.36,0,.71.05,1.06,0,0.12,0,.23,0,0.35s0.06,0.46.1,0.69,0.06,0.27.09,0.4,0.1,0.4.15,0.6,0.09,0.28.14,0.42,0.13,0.36.2,0.54L103,43.48c0.07,0.17.15,0.33,0.24,0.49l0.22,0.42c0.08,0.15.18,0.29,0.27,0.44s0.17,0.28.27,0.42l0.28,0.37c0.11,0.14.22,0.29,0.33,0.43l0.09,0.1a11.06,11.06,0,0,0,1.09,1.1l0.16,0.14c0.18,0.15.36,0.29,0.55,0.43L106.68,48c0.19,0.13.38,0.25,0.57,0.37l0.25,0.15,0.61,0.33L108.37,49,109,49.25l0.24,0.09c0.23,0.08.47,0.16,0.71,0.23l0.2,0.05c0.26,0.07.52,0.14,0.79,0.19h0a8,8,0,0,0,.46.75l0.14,0.18c0.13,0.18.26,0.35,0.41,0.51l0.17,0.19q0.22,0.24.47,0.47L112.76,52a8,8,0,0,0,.66.52h0a8,8,0,0,0,1.65.88h0a7.92,7.92,0,0,0,.86.28l0.06,0a8,8,0,0,0,.92.18h0a5.11,5.11,0,0,0,.38.47l0.3,0.29c0.12,0.11.24,0.2,0.36,0.3l0.38,0.26a5,5,0,0,0,.52.28l0.24,0.11a4.91,4.91,0,0,0,.77.24l0.19,0a4.54,4.54,0,0,0,1.81,0l0.3-.07a4.89,4.89,0,0,0,.55-0.17l0.35-.15,0.41-.22c0.13-.07.25-0.15,0.37-0.23l0.16-.13A5,5,0,0,0,125,54l0,0v0l0,0a5,5,0,0,0,.91.92l0.16,0.13c0.12,0.09.25,0.16,0.37,0.23l0.41,0.22,0.35,0.15a4.89,4.89,0,0,0,.55.17l0.3,0.07a4.54,4.54,0,0,0,1.81,0l0.19,0a4.91,4.91,0,0,0,.77-0.24l0.24-.11a5,5,0,0,0,.52-0.28L132,55c0.12-.09.25-0.19,0.36-0.3l0.3-.29a5.11,5.11,0,0,0,.38-0.47h0a8,8,0,0,0,.92-0.18l0.06,0a7.92,7.92,0,0,0,.86-0.28h0a8,8,0,0,0,1.65-.88h0a8,8,0,0,0,.66-0.52l0.15-.14q0.24-.22.47-0.47l0.17-.19c0.14-.16.28-0.34,0.41-0.51l0.14-.18A8,8,0,0,0,139,49.8h0c0.27-.05.53-0.12,0.79-0.19l0.2-.05c0.24-.07.48-0.15,0.71-0.23l0.24-.09,0.65-.28,0.25-.12,0.61-.33,0.25-.15c0.19-.12.39-0.24,0.57-0.37l0.23-.17c0.19-.14.37-0.28,0.55-0.43l0.16-.14a11.06,11.06,0,0,0,1.09-1.1l0.09-.1c0.12-.14.22-0.29,0.33-0.43l0.28-.37c0.09-.14.18-0.28,0.27-0.42s0.18-.29.27-0.44L146.8,44c0.08-.16.16-0.32,0.24-0.49l0.18-.42c0.07-.18.14-0.36,0.2-0.54s0.09-.28.14-0.42,0.11-.4.15-0.6,0.07-.27.09-0.4,0.08-.46.1-0.69,0-.23,0-0.35c0-.35.05-0.71,0.05-1.06a10.54,10.54,0,0,0-.06-1.1c0-.18,0-0.36-0.07-0.54s0-.2,0-0.3a1,1,0,0,1,.23-0.85l0.21-.25,0.11-.15q0.23-.3.42-0.61l0.15-.25q0.19-.32.34-0.67l0.08-.18a7.92,7.92,0,0,0,.31-0.88c0-.08,0-0.16.06-0.25q0.09-.35.15-0.72c0-.09,0-0.19,0-0.28a8,8,0,0,0,.07-1A8.1,8.1,0,0,0,150,30.18Z" transform="translate(0 -1.04)"/><path class="cls-4" d="M150,30.18c0-.06,0-0.12,0-0.17s-0.05-.42-0.09-0.62,0-.12,0-0.18-0.09-.39-0.15-0.58l0-.12c-0.07-.21-0.14-0.42-0.23-0.62l0,0a8,8,0,0,0-1.7-2.51v0c0-.15.07-0.32,0.11-0.48s0.11-.42.14-0.64A8,8,0,0,0,148,23a8,8,0,0,0-.07-1c0-.09,0-0.18,0-0.28q-0.06-.37-0.15-0.73c0-.08,0-0.16-0.06-0.24a8,8,0,0,0-.32-0.91h0a8,8,0,0,0-.44-0.85l-0.1-.16a8,8,0,0,0-.48-0.7L146.27,18a8,8,0,0,0-1.42-1.39l-0.08-.06a8,8,0,0,0-.82-0.54h0A9,9,0,0,0,135,8l-0.51,0a6,6,0,0,0-9.49.66V54l0,0a5,5,0,0,0,.91.92l0.16,0.13c0.12,0.09.25,0.16,0.37,0.23l0.41,0.22,0.35,0.15a4.89,4.89,0,0,0,.55.17l0.3,0.07a4.54,4.54,0,0,0,1.81,0l0.19,0a4.91,4.91,0,0,0,.77-0.24l0.24-.11a5,5,0,0,0,.52-0.28L132,55c0.12-.09.25-0.19,0.36-0.3l0.3-.29a5.11,5.11,0,0,0,.38-0.47h0a8,8,0,0,0,.92-0.18l0.06,0a7.92,7.92,0,0,0,.86-0.28h0a8,8,0,0,0,1.65-.88h0a8,8,0,0,0,.66-0.52l0.15-.14q0.24-.22.47-0.47l0.17-.19c0.14-.16.28-0.34,0.41-0.51l0.14-.18A8,8,0,0,0,139,49.8h0c0.27-.05.53-0.12,0.79-0.19l0.2-.05c0.24-.07.48-0.15,0.71-0.23l0.24-.09,0.65-.28,0.25-.12,0.61-.33,0.25-.15c0.19-.12.39-0.24,0.57-0.37l0.23-.17c0.19-.14.37-0.28,0.55-0.43l0.16-.14a11.06,11.06,0,0,0,1.09-1.1l0.09-.1c0.12-.14.22-0.29,0.33-0.43l0.28-.37c0.09-.14.18-0.28,0.27-0.42s0.18-.29.27-0.44L146.8,44c0.08-.16.16-0.32,0.24-0.49l0.18-.42c0.07-.18.14-0.36,0.2-0.54s0.09-.28.14-0.42,0.11-.4.15-0.6,0.07-.27.09-0.4,0.08-.46.1-0.69,0-.23,0-0.35c0-.35.05-0.71,0.05-1.06a10.54,10.54,0,0,0-.06-1.1c0-.18,0-0.36-0.07-0.54s0-.2,0-0.3a1,1,0,0,1,.23-0.85l0.21-.25,0.11-.15q0.23-.3.42-0.61l0.15-.25q0.19-.32.34-0.67l0.08-.18a7.92,7.92,0,0,0,.31-0.88c0-.08,0-0.16.06-0.25q0.09-.35.15-0.72c0-.09,0-0.19,0-0.28a8,8,0,0,0,.07-1A8.1,8.1,0,0,0,150,30.18Z" transform="translate(0 -1.04)"/><path class="cls-2" d="M116.12,37.32l0.11-.16a5,5,0,0,0,.37-0.7c0-.09.07-0.18,0.1-0.27a5,5,0,0,0,.16-0.53,5,5,0,0,0,.1-0.55c0-.11,0-0.22,0-0.34a5,5,0,0,0,0-1h0a5,5,0,0,0-1.39-2.81,2.8,2.8,0,0,1,0-4.24,1,1,0,1,0-1.41-1.41s-0.4.45-.57,0.7l-0.11.16a5,5,0,0,0-.37.7c0,0.09-.07.18-0.1,0.27a5,5,0,0,0-.16.53,5,5,0,0,0-.1.55c0,0.11,0,.22,0,0.34a5,5,0,0,0,0,1h0a5,5,0,0,0,1.39,2.81,3,3,0,0,1,0,4.24A1,1,0,0,0,115.55,38,5,5,0,0,0,116.12,37.32Z" transform="translate(0 -1.04)"/><path class="cls-2" d="M136.43,26l0.11,0.16a5,5,0,0,1,.37.7c0,0.09.07,0.18,0.1,0.27a5,5,0,0,1,.16.53,5,5,0,0,1,.1.55c0,0.11,0,.22,0,0.34a5,5,0,0,1,0,1h0a5,5,0,0,1-1.39,2.81,2.8,2.8,0,0,0,0,4.24A1,1,0,0,1,134.45,38s-0.4-.45-0.57-0.7l-0.11-.16a5,5,0,0,1-.37-0.7c0-.09-0.07-0.18-0.1-0.27a5,5,0,0,1-.16-0.53,5,5,0,0,1-.1-0.55c0-.11,0-0.22,0-0.34a5,5,0,0,1,0-1h0a5,5,0,0,1,1.39-2.81,3,3,0,0,0,0-4.24,1,1,0,1,1,1.41-1.41A5,5,0,0,1,136.43,26Z" transform="translate(0 -1.04)"/><path class="cls-2" d="M150,30.18c0-.06,0-0.12,0-0.17s-0.05-.42-0.09-0.62,0-.12,0-0.18-0.09-.39-0.15-0.58l0-.12c-0.07-.21-0.14-0.42-0.23-0.62l0,0a8,8,0,0,0-1.7-2.51v0c0-.15.07-0.32,0.11-0.48s0.11-.42.14-0.64A8,8,0,0,0,148,23a8,8,0,0,0-.07-1c0-.09,0-0.18,0-0.28q-0.06-.37-0.15-0.73c0-.08,0-0.16-0.06-0.24a8,8,0,0,0-.32-0.91h0a8,8,0,0,0-.44-0.85l-0.1-.16a8,8,0,0,0-.48-0.7L146.27,18a8,8,0,0,0-1.42-1.39l-0.08-.06a8,8,0,0,0-.82-0.54h0A9,9,0,0,0,135,8l-0.51,0a6,6,0,0,0-9.49.66A6,6,0,0,0,115.51,8L115,8a9,9,0,0,0-8.95,8h0a8,8,0,0,0-.82.54l-0.08.06A8,8,0,0,0,103.73,18l-0.07.09a8,8,0,0,0-.48.7l-0.1.16a8,8,0,0,0-.44.85h0a8,8,0,0,0-.32.91c0,0.08,0,.16-0.06.24q-0.09.36-.15,0.73c0,0.09,0,.18,0,0.28a8,8,0,0,0-.07,1,8,8,0,0,0,.09,1.18c0,0.22.09,0.43,0.14,0.64s0.06,0.32.11,0.48v0a8,8,0,0,0-1.7,2.51l0,0c-0.09.2-.16,0.41-0.23,0.62l0,0.12c-0.06.19-.11,0.39-0.15,0.58s0,0.12,0,.18-0.07.41-.09,0.62,0,0.12,0,.17a8.1,8.1,0,0,0,0,.82,8,8,0,0,0,.07,1c0,0.09,0,.19,0,0.28q0.06,0.37.15,0.72c0,0.08,0,.17.06,0.25a7.92,7.92,0,0,0,.31.88l0.08,0.18q0.15,0.34.34,0.67l0.15,0.25q0.2,0.32.42,0.61L101.74,36l0.21,0.25a1,1,0,0,1,.23.85c0,0.1,0,.2,0,0.3s-0.06.36-.07,0.54A10.54,10.54,0,0,0,102,39c0,0.36,0,.71.05,1.06,0,0.12,0,.23,0,0.35s0.06,0.46.1,0.69,0.06,0.27.09,0.4,0.1,0.4.15,0.6,0.09,0.28.14,0.42,0.13,0.36.2,0.54L103,43.48c0.07,0.17.15,0.33,0.24,0.49l0.22,0.42c0.08,0.15.18,0.29,0.27,0.44s0.17,0.28.27,0.42l0.28,0.37c0.11,0.14.22,0.29,0.33,0.43l0.09,0.1a11.06,11.06,0,0,0,1.09,1.1l0.16,0.14c0.18,0.15.36,0.29,0.55,0.43L106.68,48c0.19,0.13.38,0.25,0.57,0.37l0.25,0.15,0.61,0.33L108.37,49,109,49.25l0.24,0.09c0.23,0.08.47,0.16,0.71,0.23l0.2,0.05c0.26,0.07.52,0.14,0.79,0.19h0a8,8,0,0,0,.46.75l0.14,0.18c0.13,0.18.26,0.35,0.41,0.51l0.17,0.19q0.22,0.24.47,0.47L112.76,52a8,8,0,0,0,.66.52h0a8,8,0,0,0,1.65.88h0a7.92,7.92,0,0,0,.86.28l0.06,0a8,8,0,0,0,.92.18h0a5.11,5.11,0,0,0,.38.47l0.3,0.29c0.12,0.11.24,0.2,0.36,0.3l0.38,0.26a5,5,0,0,0,.52.28l0.24,0.11a4.91,4.91,0,0,0,.77.24l0.19,0a4.54,4.54,0,0,0,1.81,0l0.3-.07a4.89,4.89,0,0,0,.55-0.17l0.35-.15,0.41-.22c0.13-.07.25-0.15,0.37-0.23l0.16-.13A5,5,0,0,0,125,54l0,0v0l0,0a5,5,0,0,0,.91.92l0.16,0.13c0.12,0.09.25,0.16,0.37,0.23l0.41,0.22,0.35,0.15a4.89,4.89,0,0,0,.55.17l0.3,0.07a4.54,4.54,0,0,0,1.81,0l0.19,0a4.91,4.91,0,0,0,.77-0.24l0.24-.11a5,5,0,0,0,.52-0.28L132,55c0.12-.09.25-0.19,0.36-0.3l0.3-.29a5.11,5.11,0,0,0,.38-0.47h0a8,8,0,0,0,.92-0.18l0.06,0a7.92,7.92,0,0,0,.86-0.28h0a8,8,0,0,0,1.65-.88h0a8,8,0,0,0,.66-0.52l0.15-.14q0.24-.22.47-0.47l0.17-.19c0.14-.16.28-0.34,0.41-0.51l0.14-.18A8,8,0,0,0,139,49.8h0c0.27-.05.53-0.12,0.79-0.19l0.2-.05c0.24-.07.48-0.15,0.71-0.23l0.24-.09,0.65-.28,0.25-.12,0.61-.33,0.25-.15c0.19-.12.39-0.24,0.57-0.37l0.23-.17c0.19-.14.37-0.28,0.55-0.43l0.16-.14a11.06,11.06,0,0,0,1.09-1.1l0.09-.1c0.12-.14.22-0.29,0.33-0.43l0.28-.37c0.09-.14.18-0.28,0.27-0.42s0.18-.29.27-0.44L146.8,44c0.08-.16.16-0.32,0.24-0.49l0.18-.42c0.07-.18.14-0.36,0.2-0.54s0.09-.28.14-0.42,0.11-.4.15-0.6,0.07-.27.09-0.4,0.08-.46.1-0.69,0-.23,0-0.35c0-.35.05-0.71,0.05-1.06a10.54,10.54,0,0,0-.06-1.1c0-.18,0-0.36-0.07-0.54s0-.2,0-0.3a1,1,0,0,1,.23-0.85l0.21-.25,0.11-.15q0.23-.3.42-0.61l0.15-.25q0.19-.32.34-0.67l0.08-.18a7.92,7.92,0,0,0,.31-0.88c0-.08,0-0.16.06-0.25q0.09-.35.15-0.72c0-.09,0-0.19,0-0.28a8,8,0,0,0,.07-1A8.1,8.1,0,0,0,150,30.18ZM124,51.31h0a3,3,0,0,1-.28,1l0,0.09a3,3,0,0,1-.27.43h0l-0.08.09a2.91,2.91,0,0,1-.25.27l-0.15.13-0.24.19-0.14.09-0.1.05-0.21.1-0.15.06-0.25.08-0.11,0-0.14,0a2.85,2.85,0,0,1-1.14,0,2.92,2.92,0,0,1-.65-0.22l-0.23-.12a3,3,0,0,1-.39-0.26L119,53.17a3,3,0,0,1-.33-0.37l-0.13-.17a3,3,0,0,1-.32-0.64h0a3,3,0,0,1-.18-1q0-.12,0-0.24a1,1,0,0,0-.66-1h0a1,1,0,0,0-1.32.84c0,0.14,0,.29,0,0.43a4.94,4.94,0,0,0,.07.67l-0.07,0,0,0a6.12,6.12,0,0,1-.59-0.25h0A6,6,0,0,1,113.51,50h0a6,6,0,0,1-.69-0.95s0-.08-0.06-0.12a5.89,5.89,0,0,1-.49-4.72A5,5,0,0,0,115,45a1,1,0,0,0,0-2,3,3,0,0,1-3-3,1,1,0,0,0-2,0,5,5,0,0,0,.76,2.62A7.92,7.92,0,0,0,110,46a8,8,0,0,0,.15,1.52,8.75,8.75,0,0,1-1.79-.81l-0.09-.05q-0.29-.18-0.56-0.37l-0.15-.11h0l-0.49-.4-0.05,0a9,9,0,0,1-.69-0.68l0,0-0.3-.36-0.12-.16-0.12-.16L105.52,44l-0.09-.13-0.16-.26c-0.08-.14-0.17-0.28-0.24-0.42s-0.11-.23-0.17-0.35-0.12-.24-0.17-0.37l0-.06c-0.05-.13-0.1-0.26-0.14-0.39s-0.08-.22-0.11-0.33l-0.06-.2c0-.11-0.06-0.23-0.09-0.34l-0.06-.24,0-.24c0-.15,0-0.31-0.07-0.46l0-.13c0-.08,0-0.16,0-0.23,0-.28,0-0.56,0-0.84a8.73,8.73,0,0,1,.06-1s0,0,0-.06h0a9.26,9.26,0,0,1,.28-1.39,9,9,0,0,1,2.19-3.82,1,1,0,0,0,.1-1.26v0a1,1,0,0,0-1.53-.12,11.07,11.07,0,0,0-2.06,3l-0.11-.17c-0.1-.15-0.19-0.31-0.27-0.48l-0.13-.28c-0.07-.16-0.13-0.32-0.19-0.48l-0.06-.19,0-.1c-0.05-.18-0.09-0.36-0.13-0.55s0-.13,0-0.2V31.84a5.53,5.53,0,0,1,0-1.77h0l0-.14a5.94,5.94,0,0,1,.23-0.87h0l0-.09a6,6,0,0,1,.91-1.65h0c0.06-.07.13-0.14,0.19-0.21a6,6,0,0,1,.5-0.54h0l0.23-.17A5.63,5.63,0,0,1,108,25a1,1,0,0,0,0-2,8,8,0,0,0-3.9,1V24c0-.11,0-0.23,0-0.34a5.73,5.73,0,0,1,0-.63,6.05,6.05,0,0,1,0-.65c0-.07,0-0.13,0-0.2s0-.29.07-0.43,0-.14.06-0.22h0c0-.13.07-0.27,0.11-0.4l0.08-.21c0-.13.1-0.26,0.16-0.38l0.09-.18q0.1-.19.21-0.38l0,0,0.08-.13c0.08-.13.17-0.26,0.26-0.38l0.09-.12c0.11-.14.22-0.26,0.34-0.39l0.06-.07a6,6,0,0,1,1.68-1.22h0A6,6,0,0,1,110,17a5.92,5.92,0,0,1,1.61.24,8.35,8.35,0,0,0-.94,1.61,1,1,0,0,0,.65,1.36h0a1,1,0,0,0,1.17-.57,6,6,0,0,1,1-1.54c0-.06.6-0.59,0.81-0.77a6.12,6.12,0,0,1,2.3-1.14,1,1,0,0,0,.73-1.06v0a1,1,0,0,0-1.24-.86,8,8,0,0,0-2.89,1.42A7.92,7.92,0,0,0,110,15a8,8,0,0,0-1.76.2,7,7,0,0,1,1.48-2.79h0a7,7,0,0,1,1.55-1.33l0.09-.05a7,7,0,0,1,1.82-.78l0.15,0A7,7,0,0,1,115,10a7.06,7.06,0,0,1,.74,0h0a7,7,0,0,1,.71.11h0a4,4,0,0,1,2.3-1.94L119,8.13l0.28-.06A3.75,3.75,0,0,1,120,8a4,4,0,0,1,2.24.68,4,4,0,0,1,1.08,1.08A4,4,0,0,1,124,12V23.53a5,5,0,0,0-3-1,1,1,0,0,0,0,2,3,3,0,0,1,3,3v14a5,5,0,0,0-3-1,1,1,0,0,0,0,2,3,3,0,0,1,3,3V51A3,3,0,0,1,124,51.31Zm24-19.47v0.07c0,0.07,0,.13,0,0.2s-0.08.37-.13,0.55l0,0.1-0.06.19c-0.06.16-.12,0.32-0.19,0.48l-0.13.28c-0.08.16-.18,0.32-0.27,0.48l-0.11.17a11.07,11.07,0,0,0-2.06-3,1,1,0,0,0-1.53.12v0a1,1,0,0,0,.1,1.26,9,9,0,0,1,2.19,3.82,9.26,9.26,0,0,1,.28,1.39h0s0,0,0,.06a8.73,8.73,0,0,1,.06,1c0,0.28,0,.56,0,0.84,0,0.08,0,.16,0,0.23l0,0.13c0,0.15,0,.31-0.07.46l0,0.24-0.06.24c0,0.11-.06.23-0.09,0.34l-0.06.2c0,0.11-.08.22-0.11,0.33s-0.09.26-.14,0.39l0,0.06c-0.05.13-.11,0.25-0.17,0.37s-0.11.24-.17,0.35-0.16.28-.24,0.42l-0.16.26-0.09.13-0.24.34-0.12.16-0.12.16-0.3.36,0,0a9,9,0,0,1-.69.68l-0.05,0-0.49.4h0l-0.15.11q-0.27.2-.56,0.37l-0.09.05a8.75,8.75,0,0,1-1.79.81A8,8,0,0,0,140,46a7.92,7.92,0,0,0-.76-3.38A5,5,0,0,0,140,40a1,1,0,0,0-2,0,3,3,0,0,1-3,3,1,1,0,0,0,0,2,5,5,0,0,0,2.72-.81,5.84,5.84,0,0,1-.49,4.72s0,0.08-.06.12a6,6,0,0,1-.69.95h0a6,6,0,0,1-1.82,1.39h0a6.12,6.12,0,0,1-.59.25l0,0-0.07,0A4.94,4.94,0,0,0,134,51c0-.15,0-0.29,0-0.43a1,1,0,0,0-1.32-.84h0a1,1,0,0,0-.66,1q0,0.12,0,.24a3,3,0,0,1-.18,1h0a3,3,0,0,1-.32.64l-0.13.17a3,3,0,0,1-.33.37l-0.19.16a3,3,0,0,1-.39.26l-0.23.12a2.92,2.92,0,0,1-.65.22,2.85,2.85,0,0,1-1.14,0l-0.14,0-0.11,0-0.25-.08-0.15-.06-0.21-.1-0.1-.05-0.14-.09-0.24-.19L127,53.18a2.91,2.91,0,0,1-.25-0.27l-0.08-.09h0a3,3,0,0,1-.27-0.43l0-.09a3,3,0,0,1-.28-1h0a3,3,0,0,1,0-.31V36a3,3,0,0,1,3-3,1,1,0,1,0,0-2,5,5,0,0,0-3,1V19a3,3,0,0,1,3-3,1,1,0,1,0,0-2,5,5,0,0,0-3,1V12a4,4,0,0,1,.68-2.24,4,4,0,0,1,1.08-1.08A4,4,0,0,1,130,8a3.75,3.75,0,0,1,.67.07L131,8.13l0.28,0.09a4,4,0,0,1,2.3,1.94h0a7,7,0,0,1,.71-0.11h0a7.06,7.06,0,0,1,.74,0,7,7,0,0,1,1.67.21l0.15,0a7,7,0,0,1,1.82.78l0.09,0.05a7,7,0,0,1,1.55,1.33h0a7,7,0,0,1,1.48,2.79A8,8,0,0,0,140,15a7.92,7.92,0,0,0-3.16.66A8,8,0,0,0,134,14.24a1,1,0,0,0-1.24.86v0a1,1,0,0,0,.73,1.06,6.12,6.12,0,0,1,2.3,1.14c0.21,0.18.76,0.71,0.81,0.77a6,6,0,0,1,1,1.54,1,1,0,0,0,1.17.57h0a1,1,0,0,0,.65-1.36,8.35,8.35,0,0,0-.94-1.61,5.78,5.78,0,0,1,3.59.11,6,6,0,0,1,.64.27h0a6,6,0,0,1,1.68,1.22l0.06,0.07c0.12,0.13.23,0.26,0.34,0.39l0.09,0.12c0.09,0.12.18,0.25,0.26,0.38l0.08,0.13,0,0q0.11,0.19.21,0.38l0.09,0.18c0.06,0.13.11,0.25,0.16,0.38l0.08,0.21c0,0.13.08,0.26,0.11,0.4h0c0,0.07,0,.14.06,0.22s0.05,0.29.07,0.43,0,0.13,0,.2a6.05,6.05,0,0,1,0,.65,5.73,5.73,0,0,1,0,.63c0,0.11,0,.23,0,0.34V24a8,8,0,0,0-3.9-1,1,1,0,0,0,0,2,5.63,5.63,0,0,1,3.79,1.38L146,26.56h0a6,6,0,0,1,.5.54c0.06,0.07.13,0.13,0.19,0.21h0a6,6,0,0,1,.91,1.65l0,0.09h0a5.94,5.94,0,0,1,.23.87l0,0.14h0A5.53,5.53,0,0,1,147.94,31.84Z" transform="translate(0 -1.04)"/><path class="cls-1" d="M101.68,10A1,1,0,0,1,101,9.78C98.12,7,98.2,6.87,95.36,4a0.85,0.85,0,0,1,0-1.29c0.71-.7.63-0.78,1.33-1.49a1,1,0,0,1,.73-0.21,0.89,0.89,0,0,1,.67.27C100.93,4.18,101,4.15,103.8,7a1,1,0,0,1,.34.72,1.06,1.06,0,0,1-.33.73c-0.47.44-.93,0.84-1.37,1.31a1,1,0,0,1-.73.27Z" transform="translate(0 -1.04)"/><path class="cls-1" d="M148.3,10a1,1,0,0,1-.73-0.27c-0.44-.47-0.93-0.87-1.4-1.31a1.06,1.06,0,0,1-.29-0.75A1,1,0,0,1,146.18,7c2.84-2.84,2.87-2.8,5.71-5.63A0.94,0.94,0,0,1,152.58,1a0.91,0.91,0,0,1,.66.31l1.41,1.41a0.88,0.88,0,0,1,0,1.31c-2.84,2.81-2.81,2.84-5.65,5.65a0.87,0.87,0,0,1-.68.21S148.31,10,148.3,10Z" transform="translate(0 -1.04)"/><path class="cls-1" d="M93.85,24.64a0.91,0.91,0,0,1-.24-0.05c-3.87-1-3.9-.95-7.77-2a1,1,0,0,1-.59-0.5,0.94,0.94,0,0,1,0-.74c0.26-1,.2-1,0.45-1.95a1,1,0,0,1,1-.77,1.07,1.07,0,0,1,.26.07c3.87,1,3.85,1.1,7.72,2.14a0.87,0.87,0,0,1,.58.44,1.06,1.06,0,0,1,.22.76c-0.19.62-.43,1.22-0.58,1.85a1,1,0,0,1-.47.6A0.91,0.91,0,0,1,93.85,24.64Z" transform="translate(0 -1.04)"/><path class="cls-1" d="M156.15,24.67a1.13,1.13,0,0,1-.56,0,1.09,1.09,0,0,1-.36-0.73c-0.15-.63-0.32-1.26-0.5-1.87a1.07,1.07,0,0,1,0-.8,1.17,1.17,0,0,1,.66-0.53c3.87-1,3.89-1,7.76-2a1,1,0,0,1,.26,0,0.94,0.94,0,0,1,.93.72c0.26,1,.2,1,0.46,1.95a0.87,0.87,0,0,1-.06.71,0.93,0.93,0,0,1-.57.47c-3.87,1-3.84,1.15-7.71,2.19A1.37,1.37,0,0,1,156.15,24.67Z" transform="translate(0 -1.04)"/><path class="cls-1" d="M86.62,43.32a1.07,1.07,0,0,1-1-.72c-0.26-1-.22-1-0.48-1.94a1.26,1.26,0,0,1,.74-1.27c3.87-1,3.88-1,7.75-2a1.29,1.29,0,0,1,.26-0.12,1.17,1.17,0,0,1,.56.15,1.14,1.14,0,0,1,.46.7c0.15,0.63.36,1.24,0.54,1.86a1.09,1.09,0,0,1-.24.77,1.06,1.06,0,0,1-.53.6c-3.87,1-3.9.94-7.76,2A1,1,0,0,1,86.62,43.32Z" transform="translate(0 -1.04)"/><path class="cls-1" d="M152.58,61a1,1,0,0,1-.68-0.31c-2.84-2.84-2.86-2.82-5.69-5.66a0.93,0.93,0,0,1,0-1.42c0.47-.44.88-0.89,1.32-1.36A1,1,0,0,1,148.3,52s0,0,0,0a1,1,0,0,1,.72.22l5.68,5.64a1.08,1.08,0,0,1,0,1.48c-0.71.7-.82,0.59-1.53,1.29A0.92,0.92,0,0,1,152.58,61Z" transform="translate(0 -1.04)"/><path class="cls-1" d="M163.38,43.4a1.17,1.17,0,0,1-.28,0c-3.87-1-3.83-1.18-7.7-2.22a0.87,0.87,0,0,1-.56-0.46,1,1,0,0,1-.21-0.75c0.19-.62.32-1.24,0.47-1.88a1.05,1.05,0,0,1,.56-0.57,1,1,0,0,1,.49-0.22,1.09,1.09,0,0,1,.27,0c3.87,1,3.86,1.1,7.73,2.14a1,1,0,0,1,.62.44,1.09,1.09,0,0,1,.17.78c-0.26,1-.32,1-0.58,1.92A1.1,1.1,0,0,1,163.38,43.4Z" transform="translate(0 -1.04)"/><path class="cls-1" d="M97.42,61a1,1,0,0,1-.72-0.27C96,60,95.95,60.05,95.24,59.35a1.13,1.13,0,0,1,0-1.52l5.67-5.63a1.06,1.06,0,0,1,.75-0.22s0,0,0,0a1.08,1.08,0,0,1,.77.27c0.44,0.47.82,1,1.29,1.42a0.88,0.88,0,0,1,.24.69,0.9,0.9,0,0,1-.21.71L98.13,60.7A1,1,0,0,1,97.42,61Z" transform="translate(0 -1.04)"/></svg>