<svg id="Layer_1" data-name="Layer 1" xmlns="http://www.w3.org/2000/svg" viewBox="0 0 1200 443"><defs><style>.cls-1{fill:#fcfcfc;}</style></defs><title>Untitled-10</title><path class="cls-1" d="M0,335.46A190.52,190.52,0,0,0,47.61,302a10,10,0,0,1,10.6-2.1,145.94,145.94,0,0,0,107.73-.46,10,10,0,0,1,12.17,3.91,187,187,0,0,0,235.41,69.74,10,10,0,0,1,12.21,3.17A163.5,163.5,0,0,0,670.46,397.7a10,10,0,0,1,12-1.37,111.54,111.54,0,0,0,155.68-43.87,10,10,0,0,1,7.45-5.24,177,177,0,0,0,101.64-51.47,10,10,0,0,1,11.15-2.16,172.73,172.73,0,0,0,166.11-15.44,10,10,0,0,1,11.93.5A189.57,189.57,0,0,0,1200,312.6V0H0V335.46Z"/></svg>